<svg xmlns="http://www.w3.org/2000/svg" viewBox="0 0 24 24" fill="none">
<defs><clipPath id="h"><path d="M5.93 1.46 L18.07 1.46 L24.00 12.00 L18.07 22.54 L5.93 22.54 L0.00 12.00 Z"/></clipPath></defs>
<path d="M5.93 1.46 L18.07 1.46 L24.00 12.00 L18.07 22.54 L5.93 22.54 L0.00 12.00 Z" fill="#3a4046"/>
<rect x="0" y="6.80" width="24" height="10.40" fill="#cfd6da" clip-path="url(#h)"/>
<path d="M7.97 5.05 L10.01 5.05 L11.08 6.70 L10.79 7.48 L8.16 11.95 L11.08 17.20 L10.20 18.85 L9.91 19.04 L8.06 19.04 L7.68 18.66 L3.98 12.24 L3.98 11.76 L4.18 11.37 L7.87 5.15 Z" fill="#00acdd"/>
<path d="M6.32 12.05 L7.77 12.05 L8.06 12.34 L10.69 16.91 L10.69 17.30 L9.91 18.66 L6.22 12.15 Z" fill="#00bbe4"/>
<path d="M7.97 5.05 L10.01 5.05 L11.08 6.90 L10.20 5.44 L10.01 5.25 L9.72 5.44 L5.15 13.41 L4.96 13.60 L4.47 12.92 L4.08 12.24 L4.08 11.76 L7.87 5.15 Z" fill="#007d9f"/>
<path d="M14.19 4.96 L15.84 4.96 L16.32 5.34 L20.11 11.95 L20.02 12.34 L16.32 18.66 L15.94 19.04 L14.19 19.04 L13.89 18.85 L12.92 17.20 L15.84 12.15 L15.45 11.17 L12.92 6.90 L13.60 5.54 L14.09 5.05 Z" fill="#00acdd"/>
<path d="M14.28 5.34 L15.94 5.34 L18.85 10.30 L18.17 11.66 L17.88 11.66 L14.28 5.44 Z" fill="#00bbe4"/>
<path d="M14.19 4.96 L16.03 5.05 L17.20 6.90 L16.91 6.70 L16.23 5.44 L15.74 5.05 L14.09 5.15 L12.92 6.90 L13.60 5.54 L14.09 5.05 Z" fill="#007d9f"/>
</svg>